<svg width="53" height="53" viewBox="0 0 53 53" fill="none" xmlns="http://www.w3.org/2000/svg">
<rect x="0.232422" y="0.134277" width="52.2502" height="52.2502" rx="10" fill="#111111"/>
<path d="M36.7119 15.891C34.1313 13.3193 30.6904 11.8906 27.0584 11.8906C19.5076 11.8906 13.3905 17.9865 13.3905 25.5111C13.3905 27.8923 14.0596 30.2734 15.2065 32.2737L13.2949 39.322L20.559 37.417C22.5662 38.4648 24.7645 39.0362 27.0584 39.0362C34.6092 39.0362 40.7263 32.9404 40.7263 25.4158C40.6307 21.8916 39.2926 18.4627 36.7119 15.891ZM33.6534 30.3687C33.3667 31.1307 32.0285 31.8927 31.3595 31.9879C30.786 32.0832 30.0214 32.0832 29.2567 31.8927C28.7788 31.7022 28.1098 31.5117 27.3451 31.1307C23.9043 29.702 21.7059 26.273 21.5148 25.9873C21.3236 25.7968 20.0811 24.1776 20.0811 22.4631C20.0811 20.7487 20.9413 19.9867 21.228 19.6057C21.5148 19.2247 21.8971 19.2247 22.1838 19.2247C22.375 19.2247 22.6617 19.2247 22.8529 19.2247C23.044 19.2247 23.3308 19.1295 23.6175 19.7962C23.9043 20.4629 24.5733 22.1774 24.6689 22.2726C24.7645 22.4631 24.7645 22.6536 24.6689 22.8441C24.5733 23.0346 24.4777 23.2251 24.2866 23.4156C24.0954 23.6061 23.9043 23.8918 23.8087 23.9871C23.6175 24.1776 23.4264 24.3681 23.6175 24.6538C23.8087 25.0348 24.4777 26.0825 25.5291 27.035C26.8672 28.178 27.9186 28.559 28.3009 28.7495C28.6833 28.94 28.8744 28.8447 29.0656 28.6542C29.2567 28.4637 29.9258 27.7018 30.1169 27.3208C30.3081 26.9398 30.5948 27.035 30.8816 27.1303C31.1683 27.2255 32.8888 28.0828 33.1755 28.2732C33.5578 28.4637 33.749 28.559 33.8445 28.6542C33.9401 28.94 33.9401 29.6067 33.6534 30.3687Z" fill="white"/>
</svg>
