<svg width="53" height="53" viewBox="0 0 53 53" fill="none" xmlns="http://www.w3.org/2000/svg">
<rect x="0.644531" y="0.134277" width="52.2502" height="52.2502" rx="10" fill="#111111"/>
<path d="M26.7696 15.5575C30.232 15.5575 30.7041 15.5575 32.1205 15.5575C33.3796 15.5575 34.0091 15.8722 34.4812 16.0296C35.1107 16.3444 35.5829 16.5018 36.055 16.9739C36.5272 17.446 36.8419 17.9182 36.9993 18.5477C37.1567 19.0198 37.3141 19.6494 37.4714 20.9084C37.4714 22.3248 37.4714 22.6396 37.4714 26.2593C37.4714 29.8791 37.4714 30.1938 37.4714 31.6103C37.4714 32.8693 37.1567 33.4988 36.9993 33.971C36.6845 34.6005 36.5272 35.0726 36.055 35.5448C35.5829 36.0169 35.1107 36.3317 34.4812 36.489C34.0091 36.6464 33.3796 36.8038 32.1205 36.9612C30.7041 36.9612 30.3893 36.9612 26.7696 36.9612C23.1498 36.9612 22.8351 36.9612 21.4187 36.9612C20.1596 36.9612 19.5301 36.6464 19.058 36.489C18.4284 36.1743 17.9563 36.0169 17.4842 35.5448C17.012 35.0726 16.6973 34.6005 16.5399 33.971C16.3825 33.4988 16.2251 32.8693 16.0677 31.6103C16.0677 30.1938 16.0677 29.8791 16.0677 26.2593C16.0677 22.6396 16.0677 22.3248 16.0677 20.9084C16.0677 19.6494 16.3825 19.0198 16.5399 18.5477C16.8546 17.9182 17.012 17.446 17.4842 16.9739C17.9563 16.5018 18.4284 16.187 19.058 16.0296C19.5301 15.8722 20.1596 15.7149 21.4187 15.5575C22.8351 15.5575 23.3072 15.5575 26.7696 15.5575ZM26.7696 13.1968C23.1498 13.1968 22.8351 13.1968 21.4187 13.1968C20.0022 13.1968 19.058 13.5115 18.2711 13.8263C17.4842 14.1411 16.6973 14.6132 15.9104 15.4001C15.1235 16.187 14.8087 16.8165 14.3366 17.7608C14.0218 18.5477 13.8644 19.492 13.707 20.9084C13.707 22.3248 13.707 22.797 13.707 26.2593C13.707 29.8791 13.707 30.1938 13.707 31.6103C13.707 33.0267 14.0218 33.971 14.3366 34.7579C14.6513 35.5448 15.1235 36.3317 15.9104 37.1186C16.6973 37.9055 17.3268 38.2202 18.2711 38.6924C19.058 39.0071 20.0022 39.1645 21.4187 39.3219C22.8351 39.3219 23.3072 39.3219 26.7696 39.3219C30.232 39.3219 30.7041 39.3219 32.1205 39.3219C33.5369 39.3219 34.4812 39.0071 35.2681 38.6924C36.055 38.3776 36.8419 37.9055 37.6288 37.1186C38.4157 36.3317 38.7305 35.7021 39.2026 34.7579C39.5174 33.971 39.6748 33.0267 39.8321 31.6103C39.8321 30.1938 39.8321 29.7217 39.8321 26.2593C39.8321 22.797 39.8321 22.3248 39.8321 20.9084C39.8321 19.492 39.5174 18.5477 39.2026 17.7608C38.8879 16.9739 38.4157 16.187 37.6288 15.4001C36.8419 14.6132 36.2124 14.2984 35.2681 13.8263C34.4812 13.5115 33.5369 13.3542 32.1205 13.1968C30.7041 13.1968 30.3893 13.1968 26.7696 13.1968Z" fill="white"/>
<path d="M26.7696 19.492C22.9925 19.492 20.0022 22.4822 20.0022 26.2593C20.0022 30.0365 22.9925 33.0267 26.7696 33.0267C30.5467 33.0267 33.5369 30.0365 33.5369 26.2593C33.5369 22.4822 30.5467 19.492 26.7696 19.492ZM26.7696 30.666C24.4089 30.666 22.3629 28.7774 22.3629 26.2593C22.3629 23.8986 24.2515 21.8527 26.7696 21.8527C29.1303 21.8527 31.1762 23.7413 31.1762 26.2593C31.1762 28.62 29.1303 30.666 26.7696 30.666Z" fill="white"/>
<path d="M33.6943 20.9084C34.5635 20.9084 35.2681 20.2038 35.2681 19.3346C35.2681 18.4654 34.5635 17.7608 33.6943 17.7608C32.8251 17.7608 32.1205 18.4654 32.1205 19.3346C32.1205 20.2038 32.8251 20.9084 33.6943 20.9084Z" fill="white"/>
</svg>
