<svg width="54" height="53" viewBox="0 0 54 53" fill="none" xmlns="http://www.w3.org/2000/svg">
<g clip-path="url(#clip0_120_162)">
<rect x="0.876953" y="0.134277" width="52.2502" height="52.2502" rx="10" fill="#111111"/>
<path d="M40.0341 18.7531C39.1329 18.7531 38.2406 18.5756 37.408 18.2307C36.5754 17.8858 35.8189 17.3804 35.1816 16.7431C34.5444 16.1059 34.0389 15.3494 33.694 14.5168C33.3491 13.6842 33.1716 12.7918 33.1716 11.8906H28.2688V31.0892C28.2679 31.9645 27.9915 32.8173 27.4788 33.5267C26.9661 34.2362 26.2431 34.7663 25.4124 35.0419C24.5816 35.3175 23.6851 35.3246 22.8501 35.0623C22.015 34.7999 21.2837 34.2814 20.7598 33.5802C20.2358 32.879 19.9459 32.0308 19.931 31.1556C19.9162 30.2804 20.1771 29.4227 20.6769 28.7042C21.1767 27.9856 21.89 27.4425 22.7156 27.152C23.5413 26.8614 24.4375 26.8381 25.2771 27.0853V22.3194C23.4927 22.0788 21.6773 22.3883 20.0734 23.2066C18.4695 24.0249 17.1534 25.313 16.3008 26.899C15.4483 28.485 15.0999 30.2933 15.3021 32.0825C15.5043 33.8717 16.2476 35.5566 17.4326 36.9123C18.6177 38.2679 20.1881 39.2298 21.9342 39.6694C23.6803 40.109 25.519 40.0055 27.2047 39.3727C28.8904 38.7398 30.343 37.6077 31.3683 36.1276C32.3937 34.6475 32.9431 32.8898 32.9433 31.0892L33.0855 21.3848C35.0999 22.8637 37.5346 23.6594 40.0336 23.6557L40.0341 18.7531Z" fill="white"/>
</g>
<defs>
<clipPath id="clip0_120_162">
<rect x="0.876953" y="0.134277" width="52.2502" height="52.2502" rx="10" fill="white"/>
</clipPath>
</defs>
</svg>
